<svg width="242" height="248" viewBox="0 0 242 248" fill="none" xmlns="http://www.w3.org/2000/svg">
<path d="M181.151 62.3579C214.371 96.4019 214.371 151.598 181.151 185.642C147.93 219.686 94.0696 219.686 60.8492 185.642C27.6288 151.598 27.6288 96.4019 60.8492 62.3579C94.0696 28.3138 147.93 28.3138 181.151 62.3579Z" fill="#4B0082" stroke="white"/>
<path d="M172.948 154.765V135.847C172.948 125.532 164.788 117.168 154.721 117.168H87.2817C77.2152 117.168 69.0547 125.532 69.0547 135.847V154.765H172.948Z" fill="white"/>
<path d="M109.16 156.299H85.4531V162.756H109.16V156.299Z" fill="white"/>
<path d="M156.55 156.299H132.843V162.756H156.55V156.299Z" fill="white"/>
<path d="M154.721 85.2437H87.2817C77.2152 85.2437 69.0547 93.6072 69.0547 103.922V125.713H69.1164C69.6915 119.252 76.3748 114.03 84.9333 113.213V108.266C84.9333 105.225 87.3387 102.76 90.3063 102.76H113.343C116.31 102.76 118.716 105.225 118.716 108.266V113.101H123.286V108.266C123.286 105.225 125.692 102.76 128.659 102.76H151.696C154.664 102.76 157.069 105.225 157.069 108.266V113.213C165.628 114.03 172.311 119.252 172.886 125.713H172.948V103.922C172.948 93.6072 164.787 85.2437 154.721 85.2437Z" fill="white"/>
</svg>
